HIERARCHY
ROOT Hips
{
  OFFSET 0 89.5177 0.535
  CHANNELS 6 Xposition Yposition Zposition Zrotation Xrotation Yrotation
  JOINT Spine
  {
    OFFSET 12.0259 -0.162855 1.69034e-005
    CHANNELS 3 Zrotation Xrotation Yrotation
    JOINT Spine1
    {
      OFFSET 15.3169 -0.0121922 0
      CHANNELS 3 Zrotation Xrotation Yrotation
      JOINT Spine2
      {
        OFFSET 15.3176 -0.0121908 0
        CHANNELS 3 Zrotation Xrotation Yrotation
        JOINT Neck
        {
          OFFSET 19.9142 1.56338 0
          CHANNELS 3 Zrotation Xrotation Yrotation
          JOINT Head
          {
            OFFSET 6.92651 0 0
            CHANNELS 3 Zrotation Xrotation Yrotation
            End Site
            {
              OFFSET 20.7666 0 0
            }
          }
          JOINT LeftShoulder
          {
            OFFSET -6.20654 0.708824 7.28219
            CHANNELS 3 Zrotation Xrotation Yrotation
            JOINT LeftArm
            {
              OFFSET 14.108 0 -1.52588e-005
              CHANNELS 3 Zrotation Xrotation Yrotation
              JOINT LeftForeArm
              {
                OFFSET 28.5802 0 0
                CHANNELS 3 Zrotation Xrotation Yrotation
                JOINT LeftHand
                {
                  OFFSET 27.092 0 0
                  CHANNELS 3 Zrotation Xrotation Yrotation
                  End Site
                  {
                    OFFSET 9.55928 -0.186424 0.145352
                  }
                }
              }
            }
          }
          JOINT RightShoulder
          {
            OFFSET -6.20654 0.708866 -7.28218
            CHANNELS 3 Zrotation Xrotation Yrotation
            JOINT RightArm
            {
              OFFSET 14.108 0 1.52588e-005
              CHANNELS 3 Zrotation Xrotation Yrotation
              JOINT RightForeArm
              {
                OFFSET 28.5802 0 0
                CHANNELS 3 Zrotation Xrotation Yrotation
                JOINT RightHand
                {
                  OFFSET 27.092 0 0
                  CHANNELS 3 Zrotation Xrotation Yrotation
                  End Site
                  {
                    OFFSET 9.55929 -0.186417 -0.145354
                  }
                }
              }
            }
          }
        }
      }
    }
  }
  JOINT LeftUpLeg
  {
    OFFSET 0.005 -0.535 8.837
    CHANNELS 3 Zrotation Xrotation Yrotation
    JOINT LeftLeg
    {
      OFFSET 39.9035 0 0
      CHANNELS 3 Zrotation Xrotation Yrotation
      JOINT LeftFoot
      {
        OFFSET 39.6689 0 0
        CHANNELS 3 Zrotation Xrotation Yrotation
        JOINT LeftToe
        {
          OFFSET 10.1624 13.6296 0
          CHANNELS 3 Zrotation Xrotation Yrotation
          End Site
          {
            OFFSET 8.38147 0 0
          }
        }
      }
    }
  }
  JOINT RightUpLeg
  {
    OFFSET 0.005 -0.535 -8.837
    CHANNELS 3 Zrotation Xrotation Yrotation
    JOINT RightLeg
    {
      OFFSET 39.9035 0 0
      CHANNELS 3 Zrotation Xrotation Yrotation
      JOINT RightFoot
      {
        OFFSET 39.6689 0 0
        CHANNELS 3 Zrotation Xrotation Yrotation
        JOINT RightToe
        {
          OFFSET 10.1624 13.6296 0
          CHANNELS 3 Zrotation Xrotation Yrotation
          End Site
          {
            OFFSET 8.38147 0 0
          }
        }
      }
    }
  }
}
MOTION
Frames:	19
Frame Time:	0.0333333
242.492 89.5488 -68.9001 27.1988 -83.2024 -57.7833 2.13356 -1.47691 -1.19974 4.2379 -2.99668 -2.34469 4.2379 -2.99668 -2.3447 -8.30748e-012 -9.0191e-006 -5.27751e-005 10 -1.69084e-006 0.00731026 -178.399 -13.6071 -83.2261 4.248 -47.9212 22.0931 -15.0409 6.36111e-015 1.59028e-015 -57.3945 -28.933 -48.4156 179.574 13.2374 91.8578 51.1775 67.1986 -71.0126 -8.60843 1.59028e-015 7.95139e-016 -48.0359 22.456 44.7134 5.76294 4.53722 176.852 -12.5589 -1.59028e-015 -1.98785e-016 11.1912 7.00361 -14.6696 90 -9.84605e-016 3.97569e-016 8.94454 -6.32046 174.004 -6.23191 3.97569e-016 -1.49089e-016 9.97495 -3.63733 7.51046 90 9.62087e-016 1.98785e-016 
242.509 89.5487 -68.8858 27.2474 -83.1938 -57.7462 2.13745 -1.47923 -1.19987 4.24564 -3.00141 -2.34476 4.24564 -3.00141 -2.34477 -8.30748e-012 -9.0191e-006 -5.27751e-005 9.93261 -0.00251975 0.00731026 -178.408 -13.5959 -83.2553 4.23518 -47.8902 22.07 -15.0954 1.90833e-014 -0 -57.535 -28.9815 -48.6788 179.577 13.2267 91.8478 51.3719 67.2115 -71.1455 -8.61684 0 -1.98785e-016 -47.9548 22.4015 44.6038 5.71258 4.65825 176.898 -12.6483 3.18055e-015 7.95139e-016 11.2689 7.08438 -14.845 90 3.29548e-015 1.98785e-016 8.93719 -6.30759 174.032 -6.24276 0 -2.48481e-016 9.98409 -3.60834 7.44985 90 -7.90091e-016 -0 
242.524 89.5487 -68.8713 27.2914 -83.1911 -57.7073 2.14202 -1.48252 -1.20143 4.25458 -3.00816 -2.34977 4.25458 -3.00816 -2.34978 -8.30828e-012 -9.0191e-006 -5.27751e-005 9.86707 0.0133067 0.00731026 -178.411 -13.597 -83.268 4.14301 -47.874 21.9641 -15.0781 9.54166e-015 -0 -57.521 -28.9374 -48.614 179.578 13.2218 91.8465 51.5216 67.222 -71.2445 -8.57127 0 -5.96354e-016 -47.9155 22.2889 44.5158 5.69443 4.67275 176.915 -12.6505 1.59028e-015 7.95139e-016 11.2755 7.09097 -14.8592 90 2.95382e-015 -0 8.90981 -6.33842 174.041 -6.27696 1.19271e-015 7.95139e-016 10.0219 -3.62359 7.48171 90 -2.46928e-016 3.97569e-016 
242.538 89.5487 -68.8564 27.2889 -83.2048 -57.704 2.14211 -1.48436 -1.2043 4.25357 -3.00663 -2.36137 4.25357 -3.00663 -2.36138 -8.30828e-012 -9.0191e-006 -5.27751e-005 9.85683 0.00537691 0.00415727 -178.414 -13.5797 -83.2744 4.06958 -47.8899 21.8587 -15.0608 -6.36111e-015 -0 -57.3741 -28.8654 -48.3211 179.58 13.2275 91.8359 51.4689 67.2102 -71.1737 -8.6174 3.18055e-015 -9.93923e-016 -47.9432 22.4161 44.7041 5.67988 4.63675 176.911 -12.6456 4.77083e-015 1.98785e-016 11.2422 7.06644 -14.8058 90 3.27374e-015 1.98785e-016 8.88531 -6.3282 174.042 -6.27863 7.95139e-016 2.48481e-016 10.0189 -3.62635 7.48753 90 7.65632e-016 -0 
242.551 89.5486 -68.8351 27.2809 -83.2216 -57.7231 2.14215 -1.48605 -1.20689 4.25386 -3.0095 -2.35857 4.25386 -3.0095 -2.35858 -8.30669e-012 -9.0191e-006 -5.27751e-005 9.89108 -0.00697833 -0.0721143 -178.413 -13.5951 -83.2774 4.03765 -47.946 21.851 -15.0648 6.36111e-015 -1.59028e-015 -57.3548 -28.8951 -48.2979 179.575 13.2537 91.855 51.5807 67.2449 -71.3029 -8.60948 -1.59028e-015 -5.96354e-016 -47.9278 22.3247 44.5761 5.6355 4.67693 176.934 -12.6759 4.77083e-015 -1.98785e-016 11.2691 7.08322 -14.8423 90 -2.30621e-015 -0 8.85276 -6.28794 174.06 -6.29456 -7.95139e-016 -1.98785e-016 9.94098 -3.62523 7.48509 90 3.72721e-017 -0 
242.562 89.5487 -68.8247 27.1384 -83.2187 -57.8682 2.14217 -1.48765 -1.20873 4.25413 -3.01423 -2.36408 4.25413 -3.01423 -2.36409 -8.30589e-012 -9.0191e-006 -5.27751e-005 9.95617 -0.00318224 -0.0866022 -178.41 -13.6143 -83.2762 3.96531 -47.9574 21.828 -15.0904 6.36111e-015 -3.18055e-015 -57.3685 -28.863 -48.2452 179.576 13.2568 91.8479 51.485 67.2553 -71.1998 -8.61613 -3.18055e-015 -7.95139e-016 -47.9102 22.2532 44.4466 5.63528 4.65655 176.939 -12.6848 3.18055e-015 1.98785e-016 11.2325 7.06155 -14.795 90 -3.0765e-015 3.97569e-016 8.84768 -6.29146 174.066 -6.30448 -3.97569e-016 -2.98177e-016 9.95129 -3.63924 7.51443 90 -3.74663e-016 -1.98785e-016 
242.569 89.5489 -68.8158 26.9461 -83.2221 -58.0631 2.14215 -1.48923 -1.21044 4.2548 -3.01787 -2.37068 4.2548 -3.01787 -2.37069 -8.30589e-012 -9.0191e-006 -5.27751e-005 9.99738 0.0180285 -0.0993188 -178.408 -13.6287 -83.2744 3.9234 -47.9137 21.8382 -15.1496 -3.18055e-015 1.59028e-015 -57.3681 -28.9438 -48.4399 179.571 13.2888 91.8673 51.666 67.2956 -71.4427 -8.56123 0 -0 -47.9045 22.2441 44.4307 5.66083 4.63046 176.934 -12.6368 -3.18055e-015 -5.96354e-016 11.1974 7.03498 -14.7373 90 2.16955e-015 3.97569e-016 8.84965 -6.2571 174.071 -6.30626 -3.97569e-016 4.96962e-017 9.98956 -3.63397 7.50356 90 -5.88589e-016 -0 
242.584 89.5488 -68.813 26.8336 -83.2136 -58.1841 2.14211 -1.49083 -1.21209 4.25587 -3.02523 -2.37368 4.25587 -3.02523 -2.37369 -8.30669e-012 -9.0191e-006 -5.27751e-005 10.0593 0.0205256 -0.109923 -178.409 -13.6218 -83.275 3.88713 -47.8658 21.8452 -15.1332 3.18055e-015 -1.59028e-015 -57.5552 -28.9389 -48.6188 179.567 13.2956 91.8822 51.6417 67.2724 -71.4391 -8.6005 0 -1.98785e-016 -47.9767 22.3615 44.6416 5.63689 4.68909 176.968 -12.7135 -1.59028e-015 -1.98785e-016 11.2514 7.08485 -14.8455 90 4.67455e-016 -1.98785e-016 8.8496 -6.26213 174.089 -6.32894 0 -4.96962e-017 10.0168 -3.62526 7.48535 90 1.17252e-016 1.98785e-016 
242.593 89.549 -68.8045 26.6534 -83.2092 -58.371 2.14204 -1.49231 -1.21372 4.25742 -3.02816 -2.37629 4.25742 -3.02816 -2.3763 -8.3051e-012 -9.0191e-006 -5.27751e-005 10.085 0.00120791 -0.124887 -178.415 -13.5948 -83.2853 3.98272 -47.8599 21.9533 -15.1573 -9.54166e-015 4.77083e-015 -57.4294 -28.9341 -48.5091 179.564 13.278 91.8969 51.5716 67.2413 -71.3542 -8.65886 0 1.98785e-016 -48.1137 22.4261 44.7682 5.62927 4.73376 176.985 -12.733 -3.18055e-015 -3.97569e-016 11.2503 7.07354 -14.8209 90 2.32174e-015 -7.95139e-016 8.85052 -6.24418 174.1 -6.33411 0 4.96962e-017 9.98001 -3.64693 7.53066 90 1.07313e-015 -3.97569e-016 
242.596 89.549 -68.8008 26.4916 -83.209 -58.538 2.14194 -1.4953 -1.21539 4.2632 -3.03179 -2.37892 4.2632 -3.03179 -2.37893 -8.30669e-012 -9.0191e-006 -5.27751e-005 10.0927 -0.0117907 -0.122318 -178.413 -13.5864 -83.2744 4.03324 -47.9248 22.0192 -15.0978 -6.36111e-015 -0 -57.3868 -28.8529 -48.302 179.561 13.2995 91.9096 51.6509 67.2737 -71.4399 -8.60309 3.18055e-015 -0 -48.0132 22.3219 44.6176 5.63458 4.7426 176.985 -12.7508 -1.59028e-015 -3.97569e-016 11.2677 7.07476 -14.8276 90 7.22147e-016 -0 8.84285 -6.25873 174.097 -6.36281 3.97569e-016 4.47266e-016 10.0294 -3.66449 7.56749 90 1.27269e-015 3.97569e-016 
242.608 89.5491 -68.7937 26.3569 -83.216 -58.6758 2.14183 -1.49853 -1.21715 4.26655 -3.04169 -2.38134 4.26655 -3.04169 -2.38135 -8.30907e-012 -9.0191e-006 -5.27751e-005 10.063 -0.00200803 -0.102775 -178.408 -13.6016 -83.261 4.03697 -47.8688 22.0357 -15.1285 -1.27222e-014 -4.77083e-015 -57.3911 -28.9885 -48.5156 179.566 13.32 91.8844 51.5866 67.3074 -71.3809 -8.58584 6.36111e-015 9.93923e-016 -47.9804 22.2927 44.568 5.63303 4.75614 176.998 -12.7512 0 -3.97569e-016 11.2772 7.07731 -14.8312 90 -2.11364e-015 -0 8.84423 -6.22407 174.111 -6.35612 -3.97569e-016 -9.93923e-017 9.98918 -3.65357 7.5446 90 1.10652e-015 -0 
242.612 89.5491 -68.7796 26.1564 -83.2239 -58.8814 2.14172 -1.50091 -1.21966 4.26819 -3.04571 -2.38325 4.26819 -3.04571 -2.38326 -8.30669e-012 -9.0191e-006 -5.27751e-005 10.0261 -0.0280425 -0.0828587 -178.411 -13.5772 -83.2609 4.11482 -47.8637 22.0764 -15.0713 0 -3.18055e-015 -57.4732 -28.911 -48.4415 179.565 13.3094 91.8889 51.7156 67.3077 -71.4757 -8.59151 0 -1.19271e-015 -47.9513 22.3049 44.5037 5.60586 4.78843 177.003 -12.7953 -1.59028e-015 -0 11.2786 7.07872 -14.8321 90 -3.80331e-015 -0 8.82081 -6.2071 174.11 -6.38714 7.95139e-016 -3.47873e-016 9.99271 -3.65989 7.56206 90 8.51047e-016 3.97569e-016 
242.626 89.5489 -68.7671 26.0914 -83.2582 -58.9578 2.14167 -1.50237 -1.2215 4.25867 -3.04807 -2.38378 4.25867 -3.04807 -2.38379 -8.30748e-012 -9.0191e-006 -5.27751e-005 9.98794 -0.0568505 -0.0498749 -178.41 -13.59 -83.2619 4.14118 -47.8647 22.0909 -15.0598 -6.36111e-015 -6.36111e-015 -57.4821 -28.9042 -48.4511 179.57 13.3135 91.8674 51.5961 67.3117 -71.3278 -8.5915 0 -3.97569e-016 -47.8716 22.306 44.5036 5.58866 4.77546 177.021 -12.7673 -4.77083e-015 1.98785e-016 11.2469 7.07673 -14.8276 90 3.50979e-015 -1.98785e-016 8.77744 -6.18369 174.127 -6.40077 -3.97569e-016 2.98177e-016 10.0057 -3.66627 7.57121 90 6.82546e-016 3.97569e-016 
242.638 89.549 -68.7589 25.8801 -83.2655 -59.1776 2.14165 -1.50353 -1.22352 4.2593 -3.04943 -2.38431 4.2593 -3.04943 -2.38432 -8.30828e-012 -9.0191e-006 -5.27751e-005 9.97535 -0.0626455 -0.0286645 -178.413 -13.571 -83.2641 4.20626 -47.8662 22.0953 -15.0719 1.27222e-014 1.59028e-015 -57.383 -28.8795 -48.3359 179.571 13.285 91.8678 51.4932 67.2636 -71.1726 -8.62572 1.59028e-015 5.96354e-016 -47.975 22.3964 44.6202 5.59054 4.82377 177.032 -12.7632 -1.59028e-015 1.98785e-016 11.2341 7.06081 -14.7931 90 -2.53761e-015 1.98785e-016 8.773 -6.15702 174.14 -6.40826 3.97569e-016 -0 10.0198 -3.65705 7.55207 90 -7.04288e-016 -3.97569e-016 
242.645 89.549 -68.7576 25.7126 -83.2798 -59.352 2.14168 -1.50439 -1.22549 4.25658 -3.05061 -2.39146 4.25658 -3.05061 -2.39147 -8.30748e-012 -9.0191e-006 -5.27751e-005 9.96366 -0.0669007 -0.0297174 -178.41 -13.5975 -83.2655 4.17566 -47.871 22.0587 -15.0657 3.18055e-015 -4.77083e-015 -57.3793 -28.8715 -48.3348 179.58 13.2916 91.8244 51.2383 67.2669 -70.9137 -8.60969 -6.36111e-015 -0 -47.8344 22.4647 44.6023 5.59041 4.82617 177.045 -12.7659 -3.18055e-015 -3.97569e-016 11.24 7.06618 -14.8046 90 1.62444e-015 -0 8.76632 -6.16549 174.146 -6.40111 -1.19271e-015 -9.93923e-017 10.0055 -3.6801 7.60027 90 8.36293e-016 -1.98785e-016 
242.656 89.5491 -68.7564 25.6082 -83.288 -59.4629 2.14177 -1.50491 -1.22718 4.25381 -3.05194 -2.39556 4.25381 -3.05194 -2.39557 -8.30828e-012 -9.0191e-006 -5.27751e-005 9.99464 -0.0667509 -0.0348029 -178.415 -13.5968 -83.2862 4.17808 -47.8657 22.0502 -15.0544 0 6.36111e-015 -57.447 -28.8936 -48.3992 179.58 13.3065 91.8243 51.3983 67.2981 -71.0648 -8.55903 1.59028e-015 1.98785e-016 -47.8266 22.3703 44.4896 5.6117 4.77353 177.044 -12.7118 1.59028e-015 1.98785e-016 11.1895 7.02165 -14.708 90 -8.30858e-016 7.95139e-016 8.77387 -6.14349 174.162 -6.38346 -3.97569e-016 1.49089e-016 10.0203 -3.66458 7.56794 90 -1.45982e-016 -1.98785e-016 
242.666 89.5529 -68.7547 25.43 -83.2827 -59.6493 2.14194 -1.50509 -1.22837 4.25338 -3.05415 -2.39953 4.25338 -3.05415 -2.39954 -8.30748e-012 -9.0191e-006 -5.27751e-005 10.0484 -0.0666012 -0.0630464 -178.417 -13.5912 -83.291 4.16985 -47.8463 22.0063 -15.0654 6.36111e-015 -1.59028e-015 -57.4303 -28.9099 -48.3992 179.577 13.3153 91.8359 51.3146 67.2718 -70.9937 -8.53594 0 -3.97569e-016 -47.8335 22.3143 44.434 5.63331 4.86353 177.065 -12.6974 0 1.98785e-016 11.1743 7.04103 -14.75 90 2.70223e-016 -0 8.80529 -6.14125 174.176 -6.3391 0 3.97569e-016 9.9686 -3.68462 7.60987 90 5.61411e-016 -1.98785e-016 
242.671 89.5662 -68.751 24.8302 -83.2839 -60.258 2.14956 -1.49549 -1.22881 4.26879 -3.03522 -2.40174 4.26879 -3.03522 -2.40175 -8.30907e-012 -9.0191e-006 -5.27751e-005 10.0884 -0.0751082 -0.102794 -178.412 -13.6213 -83.286 4.05752 -47.8521 21.9127 -15.0441 -9.54166e-015 -0 -57.4035 -28.882 -48.3087 179.58 13.317 91.8211 51.3858 67.3056 -71.0559 -8.48787 0 -3.97569e-016 -47.886 22.1632 44.4393 5.74695 4.82044 177.047 -12.5263 -1.59028e-015 -1.98785e-016 11.0723 6.9769 -14.6109 90 -1.44119e-015 -1.98785e-016 8.83144 -6.05864 174.185 -6.33044 3.97569e-016 1.49089e-016 9.89089 -3.66426 7.56734 90 -7.56314e-016 -1.98785e-016 
242.675 89.5888 -68.7122 24.2071 -83.3186 -60.9099 2.15238 -1.48626 -1.22541 4.2747 -3.01671 -2.39519 4.2747 -3.01671 -2.3952 -8.30828e-012 -9.0191e-006 -5.27751e-005 10.1181 -0.0332746 -0.134054 -178.421 -13.5977 -83.3126 4.04965 -47.76 21.8767 -15.0408 0 -3.18055e-015 -57.4014 -28.8727 -48.3393 179.577 13.2576 91.8454 51.0807 67.2044 -70.7576 -8.5738 -1.59028e-015 3.97569e-016 -47.9188 22.4607 44.7034 5.71097 4.87882 177.051 -12.5535 3.18055e-015 7.95139e-016 10.9341 6.91302 -14.4719 90 1.63376e-015 3.97569e-016 8.75673 -5.98362 174.201 -6.39677 -3.97569e-016 -0 9.89999 -3.66341 7.56591 90 -8.44835e-016 1.98785e-016 
